<?xml version="1.0" standalone="no"?>
<!DOCTYPE svg PUBLIC "-//W3C//DTD SVG 20010904//EN"
 "http://www.w3.org/TR/2001/REC-SVG-20010904/DTD/svg10.dtd">
<svg version="1.0" xmlns="http://www.w3.org/2000/svg"
 width="945.000000pt" height="945.000000pt" viewBox="0 0 945.000000 945.000000"
 preserveAspectRatio="xMidYMid meet">
<metadata>
Created by potrace 1.14, written by Peter Selinger 2001-2017
</metadata>
<g transform="translate(0.000000,945.000000) scale(0.100000,-0.100000)"
fill="#000000" stroke="none">
<path d="M0 4725 l0 -4725 4725 0 4725 0 0 4725 0 4725 -4725 0 -4725 0 0
-4725z m5079 3269 c-14 -264 -5 -910 15 -1131 16 -168 80 -561 116 -718 44
-188 112 -428 180 -629 38 -115 69 -211 67 -212 -4 -5 -163 190 -276 340 -62
83 -162 224 -222 314 -89 134 -109 159 -113 140 -3 -13 -33 -161 -66 -330
-161 -812 -385 -1549 -657 -2163 -500 -1126 -1175 -1872 -1986 -2196 l-48 -19
93 103 c421 465 775 1021 1066 1672 434 972 717 2116 842 3395 38 391 70 908
70 1122 0 93 1 99 23 107 12 5 101 46 197 91 96 45 231 108 300 140 69 32 188
88 265 124 76 36 140 64 142 62 2 -1 -2 -97 -8 -212z m365 -3554 c102 -401
215 -722 355 -1015 271 -565 675 -1040 1214 -1430 63 -45 106 -83 103 -90 -5
-14 -22 -38 -305 -430 -112 -154 -206 -281 -210 -283 -4 -1 -45 26 -92 61
-355 267 -829 466 -1304 547 -220 37 -374 50 -593 50 -387 0 -746 -53 -1120
-165 -81 -25 -151 -45 -156 -45 -5 0 21 25 58 55 462 378 965 585 1551 636
138 12 481 7 623 -10 34 -4 62 -4 62 0 0 4 -11 26 -24 50 -53 94 -157 334
-214 490 -68 190 -109 336 -151 539 -59 289 -66 358 -66 700 0 311 1 317 32
492 32 176 73 351 94 405 10 25 15 8 49 -157 21 -102 63 -282 94 -400z"/>
</g>
</svg>
